<svg xmlns="http://www.w3.org/2000/svg" fill="none" viewBox="0 0 1024 1024" height="1024" width="1024">
<g clip-path="url(#clip0_1515_111182)">
<ellipse fill="url(#paint0_linear_1515_111182)" ry="127.5" rx="467" cy="762.5" cx="506"></ellipse>
<path fill="url(#paint1_linear_1515_111182)" d="M230.457 615.502C230.457 615.502 230.233 614.922 229.928 615.542C227.184 621.122 202.334 681.566 200.362 728.218C200.362 728.218 196.215 755.02 230.965 754.665C259.973 754.37 259.2 729.662 259.099 721.337C258.702 687.573 230.457 615.502 230.457 615.502Z"></path>
<path fill="url(#paint2_linear_1515_111182)" d="M229.664 784.343C229.105 784.343 228.647 783.886 228.647 783.327V631.754C228.647 631.195 229.105 630.737 229.664 630.737C230.223 630.737 230.68 631.195 230.68 631.754V783.327C230.68 783.896 230.223 784.343 229.664 784.343Z"></path>
<path fill="url(#paint3_linear_1515_111182)" d="M869.35 810.661C876.541 808.4 883.517 805.446 889.874 797.176C891.178 795.482 892.404 793.311 891.689 791.283C891.151 789.757 889.594 788.778 888.013 788.529C887.424 788.442 886.827 788.426 886.234 788.48H886.228C885.316 788.574 884.415 788.754 883.536 789.015L883.285 789.089C879.09 790.299 875.093 792.13 871.425 794.524C871.093 794.738 870.698 794.833 870.306 794.792C869.914 794.75 869.548 794.576 869.266 794.296C868.984 794.017 868.804 793.649 868.754 793.252C868.704 792.855 868.789 792.453 868.993 792.111C869.367 791.491 869.803 790.911 870.292 790.38C871.015 789.613 871.807 788.916 872.657 788.299C873.788 787.462 874.994 786.715 876.174 785.951C880.562 783.116 884.719 779.929 888.605 776.42C891.378 773.913 894.091 771.131 895.409 767.607C896.015 765.986 896.291 764.117 895.568 762.547C894.376 759.968 890.999 759.245 888.237 759.78C883.398 760.721 879.532 764.32 876.104 767.908C873.261 770.889 870.075 774.189 865.99 774.372C865.294 774.439 864.594 774.296 863.977 773.963C862.812 773.247 862.512 771.588 862.927 770.271C863.343 768.953 864.304 767.901 865.231 766.89C870.623 761.021 875.928 754.916 879.429 747.725C882.93 740.534 884.481 732.044 882.048 724.409C881.335 722.177 880.263 720.005 878.591 718.383C876.919 716.762 874.575 715.745 872.28 716.056C869.153 716.473 866.798 719.15 865.213 721.915C859.768 731.401 860.101 743.025 858.567 753.891C858.138 756.933 857.514 760.053 855.728 762.557C855.563 762.798 855.35 763 855.101 763.15C853.632 764.013 852.313 762.272 851.761 760.795C849.583 754.95 849.038 748.265 845.139 743.427C843.65 741.585 841.544 740.046 839.197 740.061C836.331 740.081 833.877 742.51 833.04 745.292C832.204 748.074 832.705 751.096 833.601 753.858C835.264 758.98 838.245 763.582 841.759 767.627C843.61 769.763 845.705 771.92 846.261 774.706C846.431 775.653 846.36 776.628 846.054 777.539C845.748 778.45 845.218 779.267 844.513 779.912C844.184 780.202 843.801 780.423 843.386 780.561C842.971 780.699 842.533 780.75 842.098 780.713C841.157 780.626 840.306 780.139 839.484 779.666C839.139 779.467 838.794 779.265 838.447 779.067C837.077 778.276 835.707 777.483 834.336 776.69C830.851 774.674 826.646 772.614 823.018 774.35C821.167 775.238 819.954 776.983 819.383 778.986C818.872 780.804 818.872 782.73 819.383 784.548C820.464 788.328 827.276 798.848 830.086 801.561C833.368 804.729 844.748 818.398 869.35 810.661Z"></path>
<ellipse fill="url(#paint4_linear_1515_111182)" ry="202.142" rx="206.526" cy="460.142" cx="511.526"></ellipse>
<ellipse fill="url(#paint5_linear_1515_111182)" ry="202.142" rx="206.526" cy="470.858" cx="511.526"></ellipse>
<ellipse fill="url(#paint6_linear_1515_111182)" ry="156.843" rx="160.252" cy="477.164" cx="512.013"></ellipse>
<ellipse fill="url(#paint7_linear_1515_111182)" ry="156.843" rx="160.252" cy="468.423" cx="512.013"></ellipse>
<path fill="url(#paint8_linear_1515_111182)" d="M579.68 403.14C586.545 410.005 586.545 421.135 579.68 427.999L539.283 468.391L579.68 508.794C586.545 515.659 586.545 526.789 579.68 533.653C572.815 540.518 561.685 540.518 554.82 533.653L514.423 493.251L474.026 533.653C467.161 540.518 456.031 540.518 449.166 533.653C442.301 526.789 442.301 515.659 449.166 508.794L489.563 468.391L449.166 427.999C442.301 421.135 442.301 410.005 449.166 403.14C456.031 396.275 467.161 396.275 474.026 403.14L514.423 443.531L554.82 403.14C561.685 396.275 572.815 396.275 579.68 403.14Z" clip-rule="evenodd" fill-rule="evenodd"></path>
<ellipse fill-opacity="0.15" fill="#7D7D7D" ry="15.5" rx="56.5" cy="773.5" cx="357.5"></ellipse>
<path fill="url(#paint9_linear_1515_111182)" d="M361.432 488.266H338.02V512.849H361.432V488.266Z"></path>
<path fill="url(#paint10_linear_1515_111182)" d="M352.848 497.24C365.994 497.24 376.651 484.924 376.651 469.731C376.651 454.537 365.994 442.221 352.848 442.221C339.702 442.221 329.045 454.537 329.045 469.731C329.045 484.924 339.702 497.24 352.848 497.24Z"></path>
<path fill="url(#paint11_linear_1515_111182)" d="M335.354 431.883C333.275 428.23 329.387 425.772 324.933 425.772C318.29 425.772 312.905 431.241 312.905 437.988C312.905 441.594 314.444 444.836 316.892 447.072C307.585 464.202 316.195 479.597 322.651 485.83C322.685 485.863 322.719 485.896 322.753 485.929C334.527 496.021 356.101 489.288 356.101 489.288C363.121 485.929 363.743 484.06 364.86 480.529C361.712 481.517 354.477 476.613 357.841 468.073C362.407 461.89 366.973 466.897 369.046 469.171C369.264 469.41 369.455 469.618 369.614 469.781C372.608 465.586 374.986 464.85 376.484 464.387C377.628 464.033 378.259 463.838 378.259 462.381C378.259 455.404 376.472 449.857 374.381 445.903C374.081 445.319 373.753 444.745 373.395 444.183C372.208 442.274 370.997 440.858 370.014 439.964C368.93 438.771 367.7 437.647 366.367 436.584C354.273 428.461 343.34 429.132 335.354 431.883Z" clip-rule="evenodd" fill-rule="evenodd"></path>
<rect fill="#FEE4C3" transform="rotate(-0.516593 322.413 752.287)" height="13.4558" width="10.0919" y="752.287" x="322.413"></rect>
<path fill="#4F538F" d="M346.302 765.137C347.15 769.704 344.919 772.849 337.612 774.206C330.306 775.562 322.497 777.012 319.922 772.357C320.038 772.56 317.654 769.357 321.695 763.475C321.695 763.475 327.269 765.861 333.27 761.326C339.96 761.397 345.671 761.735 346.302 765.137Z"></path>
<rect fill="#FEE4C3" transform="rotate(-0.260985 365.422 749.711)" height="13.4558" width="10.0919" y="749.711" x="365.422"></rect>
<path fill="#4F538F" d="M390.033 763.455C390.86 768.026 387.837 770.367 380.524 771.691C373.211 773.015 365.396 774.429 362.842 769.764C362.958 769.967 360.588 766.753 364.655 760.889C364.655 760.889 370.218 763.3 376.24 758.792C382.929 758.893 389.416 760.051 390.033 763.455Z"></path>
<path fill="#D1E2FF" d="M310.704 609.23C311.459 636.788 312.389 653.598 314.074 684.538C315.759 715.478 316.666 728.537 319.406 756.73L339.768 756.497L344.404 687.976C346.089 665.631 347.774 619.287 347.774 619.287C347.774 619.287 352.829 655.317 356.199 687.976C359.569 720.634 362.266 756.438 362.266 756.438L381.41 756.185C381.41 756.185 384.844 729.228 384.844 684.538C384.844 639.848 384.844 609.233 384.844 609.233L310.704 609.23Z"></path>
<path fill="url(#paint12_linear_1515_111182)" d="M379.079 456.056C382.234 454.003 384.808 456.896 388.598 461.643C392.389 466.391 395.618 471.996 392.209 474.717C388.8 477.439 382.148 475.318 378.357 470.57C365.611 465.704 368.074 451.545 379.079 456.056Z"></path>
<path fill="url(#paint13_linear_1515_111182)" d="M287.916 612.847C284.37 611.583 285.109 607.783 286.584 601.889C288.06 595.996 290.557 590.029 294.788 591.088C299.02 592.148 301.369 598.723 299.893 604.617C303.756 617.702 291.005 624.333 287.916 612.847Z"></path>
<path fill="url(#paint14_linear_1515_111182)" d="M382.912 541.139C383.011 543.984 383.131 546.895 383.305 549.843C384.437 565.703 386.333 582.133 387.45 591.814C387.991 596.507 388.35 599.614 388.35 600.302C388.35 602.355 388.628 603.852 388.845 605.017C389.162 606.717 389.347 607.714 388.35 608.712C349.665 627.216 310.98 617.124 309.298 613.76C308.43 612.024 308.401 599.034 309.069 583.427C305.485 591.71 303.459 596.843 300.936 607.617C300.927 607.044 296.011 602.839 285.862 604.284C283.641 597.417 283.483 592.511 288.909 569.914C293.986 548.772 309.071 515.784 320.236 506.364C328.907 499.049 332.453 498.151 339.062 502.308C339.484 503.225 339.822 504.172 340.082 505.145C343.177 506.704 347.285 507.793 353.028 507.793L353.106 507.777C356.843 507.022 361.451 506.091 363.121 502.75C366.549 501.695 369.356 501.426 371.661 501.832C376.05 501.835 380.753 502.729 383.305 504.43C388.351 507.794 395.075 506.115 398.441 502.75C400.123 499.386 398.441 496.022 395.077 492.658C391.713 489.294 381.623 477.52 381.623 474.156C381.623 471.465 388.351 467.428 391.715 465.746C401.246 473.035 420.309 489.967 420.309 499.386C421.95 504.31 421.99 536.464 382.912 541.139ZM300.927 607.652C300.933 607.643 300.936 607.631 300.936 607.617L300.927 607.652Z" clip-rule="evenodd" fill-rule="evenodd"></path>
<path fill="#5B7EFB" d="M364.553 502.902C364.553 502.902 362.959 501.268 361.309 501.268C352.417 510.073 342.346 503.954 338.199 499.634C338.043 499.465 336.548 499.633 334.897 501.268C349.424 514.345 360.702 507.806 364.553 502.902Z"></path>
<path fill="url(#paint15_linear_1515_111182)" d="M767.991 564.269C770.38 557.747 781.414 555.891 788.181 556.125C786.453 576.388 764.93 575.964 755.146 574.469C758.369 573.785 765.626 570.727 767.991 564.269Z"></path>
<path stroke-width="0.3" stroke="url(#paint16_linear_1515_111182)" d="M786.062 558.286C782.426 562.858 772.524 571.445 758.099 574.35"></path>
<path stroke="url(#paint17_linear_1515_111182)" d="M844.56 452C845.461 474.491 836.31 526.185 792.498 553.04"></path>
<path stroke="url(#paint18_linear_1515_111182)" d="M808.376 479.993C807.361 492.812 804.331 508.098 793.368 508.988C785.319 509.641 791.044 498.68 795.463 502.474C799.881 506.269 796.907 520.275 774.941 524.372"></path>
<path stroke="url(#paint19_linear_1515_111182)" d="M857.681 504.932C856.022 515.633 849.212 538.491 835.242 544.318"></path>
<path fill="#6CB8FF" d="M247.925 307.404L281.162 295.42C281.162 295.42 269.983 264.084 235.784 273.731"></path>
<path fill="#6CB8FF" d="M277.535 304.102C284.302 322.869 274.771 343.5 256.244 350.18C237.718 356.859 217.213 347.058 210.446 328.291C203.679 309.521 213.212 288.891 231.738 282.211L243.991 316.196L277.535 304.102Z"></path>
<path fill="#6CB8FF" d="M579.369 188.184C580.754 188.544 581.939 189.439 582.664 190.672C583.39 191.905 583.596 193.376 583.238 194.761L574.255 229.655C573.901 231.042 573.01 232.231 571.779 232.961C570.548 233.692 569.078 233.904 567.691 233.55L560.74 231.761C559.355 231.401 558.17 230.505 557.444 229.271C556.719 228.037 556.514 226.566 556.873 225.18L565.857 190.281C566.211 188.895 567.102 187.705 568.333 186.975C569.564 186.244 571.034 186.032 572.422 186.386L579.372 188.175L579.369 188.184ZM528.914 182.63C529.6 182.808 530.245 183.12 530.81 183.548C531.376 183.975 531.852 184.51 532.211 185.122C532.57 185.733 532.805 186.409 532.903 187.112C533 187.814 532.959 188.529 532.78 189.215L525.596 217.123C525.241 218.51 524.351 219.699 523.12 220.43C521.889 221.16 520.418 221.372 519.031 221.019L512.081 219.23C510.696 218.869 509.51 217.974 508.785 216.74C508.06 215.506 507.854 214.034 508.213 212.649L515.399 184.736C515.754 183.349 516.644 182.16 517.875 181.429C519.106 180.699 520.577 180.487 521.964 180.84L528.914 182.63ZM551.446 195.87C552.831 196.23 554.016 197.126 554.742 198.36C555.467 199.594 555.672 201.065 555.313 202.451L549.925 223.382C549.57 224.769 548.68 225.958 547.449 226.688C546.218 227.419 544.747 227.631 543.36 227.277L536.415 225.489C535.028 225.13 533.841 224.235 533.115 223C532.389 221.766 532.183 220.293 532.543 218.907L537.931 197.976C538.286 196.588 539.177 195.399 540.409 194.668C541.641 193.938 543.112 193.727 544.5 194.081L551.446 195.87ZM578.186 166.528L574.076 165.499C573.417 165.294 572.861 164.845 572.522 164.244C572.183 163.642 572.087 162.934 572.254 162.264C572.42 161.594 572.836 161.013 573.417 160.64C573.998 160.267 574.7 160.131 575.378 160.258L585.861 162.876C586.385 163.004 586.857 163.288 587.217 163.69C587.576 164.092 587.805 164.594 587.873 165.129C587.923 165.474 587.903 165.825 587.817 166.163L585.11 176.68C584.932 177.373 584.488 177.967 583.873 178.332C583.258 178.698 582.523 178.804 581.83 178.628C581.137 178.447 580.545 177.999 580.183 177.382C579.821 176.766 579.718 176.03 579.898 175.338L580.977 171.145L551.589 188.576C551.12 188.855 550.578 188.984 550.034 188.947C549.49 188.909 548.971 188.706 548.545 188.365L520.857 166.368C520.298 165.92 519.939 165.269 519.858 164.557C519.777 163.845 519.98 163.13 520.425 162.568C520.643 162.289 520.915 162.057 521.224 161.884C521.533 161.711 521.873 161.601 522.224 161.559C522.576 161.518 522.932 161.546 523.273 161.643C523.613 161.739 523.931 161.902 524.209 162.122L550.446 182.983L578.191 166.53L578.186 166.528Z"></path>
<path fill="#6CB8FF" d="M807.048 323.935C793.288 313.413 776.262 308.631 758.889 310.339C756.252 310.532 754.338 312.957 754.532 315.594C754.854 318.333 757.279 320.246 760.017 319.924C773.978 318.601 787.93 322.303 799.363 330.384L807.048 323.935ZM790.025 338.219C781.516 332.961 771.636 330.534 761.489 331.435C758.85 331.632 756.938 334.053 757.159 336.92C757.353 339.557 759.777 341.471 762.414 341.278C769.207 340.645 775.985 341.953 782.017 344.938L790.025 338.219ZM793.372 353.635L800.85 347.36C806.741 354.083 810.591 362.351 811.996 371.305C812.417 373.918 810.635 376.441 807.896 376.763C806.527 376.924 805.1 376.628 804.081 375.824C803.187 375.118 802.47 373.931 802.207 372.69C801.096 365.496 798.042 358.935 793.372 353.635ZM773.805 351.828C770.618 350.857 767.254 350.466 763.874 350.706C762.599 350.802 761.413 351.397 760.573 352.362C759.733 353.327 759.307 354.583 759.388 355.86C759.484 357.135 760.079 358.321 761.044 359.161C761.79 359.81 762.711 360.212 763.681 360.324L773.805 351.828ZM778.675 365.967L786.157 359.689C789.609 363.505 791.927 368.198 792.795 373.333C793.219 375.943 791.434 378.469 788.824 378.893C787.356 379.18 785.929 378.884 784.91 378.079C784.016 377.373 783.428 376.288 783.165 375.047C782.58 371.629 781.009 368.479 778.675 365.967ZM809.805 339.847L817.279 333.575C825.809 343.465 831.32 355.629 833.22 368.807C833.641 371.42 831.73 373.841 829.117 374.262C828.452 374.396 827.765 374.382 827.107 374.22C826.448 374.058 825.833 373.753 825.306 373.326C824.412 372.62 823.694 371.433 823.432 370.192C821.94 358.885 817.161 348.355 809.805 339.847Z" clip-rule="evenodd" fill-rule="evenodd"></path>
<path fill="#74BCFF" d="M815.311 319.819C817.337 318.118 820.359 318.383 822.059 320.409C823.76 322.436 823.495 325.457 821.469 327.157L763.229 376.024C761.203 377.724 758.182 377.46 756.481 375.434C754.781 373.407 755.045 370.386 757.072 368.686L815.311 319.819Z"></path>
</g>
<defs>
<linearGradient gradientUnits="userSpaceOnUse" y2="890" x2="506" y1="635" x1="506" id="paint0_linear_1515_111182">
<stop stop-color="#BDDFFF"></stop>
<stop stop-opacity="0" stop-color="white" offset="0.95892"></stop>
</linearGradient>
<linearGradient gradientUnits="userSpaceOnUse" y2="615.257" x2="229.66" y1="754.678" x1="229.66" id="paint1_linear_1515_111182">
<stop stop-color="#5FB2FF"></stop>
<stop stop-color="#DFF0FF" offset="0.7893"></stop>
</linearGradient>
<linearGradient gradientUnits="userSpaceOnUse" y2="784.347" x2="229.661" y1="630.738" x1="229.661" id="paint2_linear_1515_111182">
<stop stop-color="#DFF0FF"></stop>
<stop stop-color="#A2D2FF" offset="0.818"></stop>
</linearGradient>
<linearGradient gradientUnits="userSpaceOnUse" y2="802.968" x2="847.534" y1="720.042" x1="883.842" id="paint3_linear_1515_111182">
<stop stop-color="#C4E3FF" offset="0.365159"></stop>
<stop stop-color="#5FB2FF" offset="1"></stop>
</linearGradient>
<linearGradient gradientUnits="userSpaceOnUse" y2="583.387" x2="395.65" y1="278.657" x1="602.631" id="paint4_linear_1515_111182">
<stop stop-color="#A4D3FF"></stop>
<stop stop-color="#E3F1FF" offset="1"></stop>
</linearGradient>
<linearGradient gradientUnits="userSpaceOnUse" y2="623.113" x2="420.241" y1="289.373" x1="602.631" id="paint5_linear_1515_111182">
<stop stop-color="#D8ECFF"></stop>
<stop stop-color="#A5D3FF" offset="0.656831"></stop>
</linearGradient>
<linearGradient gradientUnits="userSpaceOnUse" y2="584.609" x2="402.105" y1="336.349" x1="582.705" id="paint6_linear_1515_111182">
<stop stop-color="#6CB8FF"></stop>
<stop stop-color="#E9F4FF" offset="0.656831"></stop>
</linearGradient>
<linearGradient gradientUnits="userSpaceOnUse" y2="569.968" x2="376.449" y1="327.608" x1="582.705" id="paint7_linear_1515_111182">
<stop stop-color="#6CB8FF"></stop>
<stop stop-color="#8FC8FF" offset="0.568288"></stop>
</linearGradient>
<linearGradient gradientUnits="userSpaceOnUse" y2="533.653" x2="579.104" y1="403.715" x1="449.166" id="paint8_linear_1515_111182">
<stop stop-color="white"></stop>
<stop stop-opacity="0.477764" stop-color="white" offset="1"></stop>
</linearGradient>
<linearGradient gradientUnits="userSpaceOnUse" y2="512.849" x2="349.726" y1="491.443" x1="349.726" id="paint9_linear_1515_111182">
<stop stop-color="#FFCDA5"></stop>
<stop stop-color="#FFE8D1" offset="1"></stop>
</linearGradient>
<linearGradient gradientUnits="userSpaceOnUse" y2="494.151" x2="377.041" y1="442.221" x1="349.189" id="paint10_linear_1515_111182">
<stop stop-color="#FFF2DF"></stop>
<stop stop-color="#FEE0BC" offset="1"></stop>
</linearGradient>
<linearGradient gradientUnits="userSpaceOnUse" y2="481.576" x2="317.991" y1="445.717" x1="366.082" id="paint11_linear_1515_111182">
<stop stop-color="#9F4326"></stop>
<stop stop-color="#574915" offset="1"></stop>
</linearGradient>
<linearGradient gradientUnits="userSpaceOnUse" y2="460.749" x2="387.884" y1="470.62" x1="375.521" id="paint12_linear_1515_111182">
<stop stop-color="#FEE4C3"></stop>
<stop stop-color="#FFD1AC" offset="1"></stop>
</linearGradient>
<linearGradient gradientUnits="userSpaceOnUse" y2="602.999" x2="286.307" y1="606.841" x1="301.653" id="paint13_linear_1515_111182">
<stop stop-color="#FEE4C3"></stop>
<stop stop-color="#FFD1AC" offset="1"></stop>
</linearGradient>
<linearGradient gradientUnits="userSpaceOnUse" y2="510.403" x2="379.153" y1="611.307" x1="342.885" id="paint14_linear_1515_111182">
<stop stop-color="#6688FF" offset="0.0403741"></stop>
<stop stop-color="#F094FF" offset="1"></stop>
</linearGradient>
<linearGradient gradientUnits="userSpaceOnUse" y2="550.631" x2="770.395" y1="563.994" x1="789.326" id="paint15_linear_1515_111182">
<stop stop-color="#6CB8FF"></stop>
<stop stop-color="#8FC8FF" offset="0.656831"></stop>
</linearGradient>
<linearGradient gradientUnits="userSpaceOnUse" y2="552.535" x2="778.949" y1="562.297" x1="787.361" id="paint16_linear_1515_111182">
<stop stop-color="#B2DAFF"></stop>
<stop stop-color="#88C5FF" offset="1"></stop>
</linearGradient>
<linearGradient gradientUnits="userSpaceOnUse" y2="521.715" x2="776.79" y1="454.387" x1="825.321" id="paint17_linear_1515_111182">
<stop stop-color="#B2DAFF"></stop>
<stop stop-color="#88C5FF" offset="1"></stop>
</linearGradient>
<linearGradient gradientUnits="userSpaceOnUse" y2="520.892" x2="774.112" y1="481.319" x1="790.099" id="paint18_linear_1515_111182">
<stop stop-color="#B2DAFF"></stop>
<stop stop-color="#88C5FF" offset="1"></stop>
</linearGradient>
<linearGradient gradientUnits="userSpaceOnUse" y2="509.66" x2="814.616" y1="502.675" x1="850.271" id="paint19_linear_1515_111182">
<stop stop-color="#B2DAFF"></stop>
<stop stop-color="#88C5FF" offset="1"></stop>
</linearGradient>
<clipPath id="clip0_1515_111182">
<rect fill="white" height="1024" width="1024"></rect>
</clipPath>
</defs>
</svg>
