<?xml version="1.0" standalone="no"?><!DOCTYPE svg PUBLIC "-//W3C//DTD SVG 1.1//EN" "http://www.w3.org/Graphics/SVG/1.1/DTD/svg11.dtd"><svg t="1665476263004" class="icon" viewBox="0 0 1024 1024" version="1.1" xmlns="http://www.w3.org/2000/svg" p-id="2042" xmlns:xlink="http://www.w3.org/1999/xlink" width="200" height="200"><path d="M662.756 796.444H378.31v142.223h-256v56.889h796.445v-56.89h-256z m261.688-768H116.622c-42.666 0-79.644 34.134-79.644 79.645V634.31c0 42.667 36.978 79.645 79.644 79.645H921.6c45.511 0 79.644-34.134 79.644-79.645V108.09c2.845-45.511-34.133-79.645-76.8-79.645z m25.6 603.023a25.494 25.494 0 0 1-25.6 25.6H116.622a25.494 25.494 0 0 1-25.6-25.6V108.089a25.494 25.494 0 0 1 25.6-25.6H921.6a25.494 25.494 0 0 1 25.6 25.6v523.378z" p-id="2043" fill="#ffffff"></path><path d="M625.778 449.422c22.755-25.6 36.978-56.889 36.978-93.866h-56.89c0 48.355-36.977 85.333-85.333 85.333S435.2 403.91 435.2 355.556s36.978-85.334 85.333-85.334v-56.889c-36.977 0-71.11 14.223-96.71 39.823L312.888 142.222h-153.6v56.89h130.844l102.4 102.4c-8.533 17.066-11.377 36.977-11.377 54.044 0 79.644 62.577 142.222 142.222 142.222 22.755 0 42.666-5.69 59.733-14.222L696.89 597.333h176.355v-56.889H722.49l-96.711-91.022z" p-id="2044" fill="#ffffff"></path><path d="M159.289 341.333H301.51v56.89H159.29z m0 199.111h170.667v56.89H159.289zM614.4 201.956c-5.689-2.845-11.378-2.845-14.222-2.845-31.29 0-56.89 25.6-56.89 56.889s25.6 56.889 56.89 56.889 56.889-25.6 56.889-56.889c0-5.689 0-8.533-2.845-14.222l42.667-42.667H870.4v-56.889H674.133L614.4 201.956z" p-id="2045" fill="#ffffff"></path></svg>